<svg xmlns="http://www.w3.org/2000/svg" viewBox="-28.68 13.280000000000001 537.8 189.08" width="537.8" height="189.08" style="display: block; max-width: 100%; height: auto; overflow: visible;">
      <defs>
        <animate id="cycle" begin="0s;cycle.end" dur="15.346153846153845s"/>
        
      <linearGradient id="grad-fill" x1="0%" y1="0%" x2="100%" y2="0%">
        <stop offset="0%" stop-color="#d2dd31" />
        <stop offset="100%" stop-color="#26e3c3" />
      </linearGradient>
    
      <linearGradient id="grad-stroke" x1="0%" y1="0%" x2="100%" y2="0%">
        <stop offset="0%" stop-color="#d2dd31" />
        <stop offset="100%" stop-color="#26e3c3" />
      </linearGradient>
    
      <filter id="glow" x="-50%" y="-50%" width="200%" height="200%">
        <feGaussianBlur stdDeviation="3.5" result="coloredBlur"/>
        <feMerge>
          <feMergeNode in="coloredBlur"/>
          <feMergeNode in="SourceGraphic"/>
        </feMerge>
      </filter>
    
      <filter id="shadow" x="-50%" y="-50%" width="200%" height="200%">
        <feDropShadow dx="4" dy="4" stdDeviation="3" flood-opacity="0.6"/>
      </filter>
    
      <pattern id="texture-dots" x="-8.899999999999977" y="-3.5400000000000063" width="26" height="26" patternUnits="userSpaceOnUse">
        <circle cx="13" cy="13" r="1.5" fill="#3b82f6" fill-opacity="0.3"/>
      </pattern>
    
        <style>
          
        </style>
      </defs>
      <rect x="-28.68" y="13.280000000000001" width="537.8" height="189.08" fill="#ffffff" rx="8" />
      <rect x="-4.68" y="37.28" width="489.79999999999995" height="141.08" 
             fill="url(#texture-dots)" 
             class="texture-overlay texture-dots" 
             data-texture="dots"
             data-color="#3b82f6"
             data-size="26"
             data-opacity="0.3"
             pointer-events="none"/>
      <g transform="translate(0, 0)">
      
      <path
        d="M31.36 154.68L31.36 154.68Q28.72 154.68 25.96 154.32L25.96 154.32Q18.40 153.36 14.86 149.88Q11.32 146.40 11.32 142.32L11.32 142.32Q11.32 137.88 15.28 134.22Q19.24 130.56 26.44 130.56L26.44 130.56Q31.24 130.56 36.88 132.48L36.88 132.48Q40 133.56 44.32 136.08Q48.64 138.60 54.28 141.36L54.28 141.36Q60.28 135.60 65.26 127.08Q70.24 118.56 75.22 108.78Q80.20 99 86.02 89.16Q91.84 79.32 99.52 70.68L99.52 70.68L106.48 62.88Q102.04 62.16 97.24 61.74Q92.44 61.32 87.28 61.32L87.28 61.32Q80.80 61.32 73.96 61.98Q67.12 62.64 60.28 64.08L60.28 64.08Q49 66.48 41.20 71.76Q33.40 77.04 29.38 83.22Q25.36 89.40 25.36 94.80L25.36 94.80Q25.36 98.52 27.46 101.46Q29.56 104.40 33.76 105.72L33.76 105.72Q36.40 106.56 39.16 106.56L39.16 106.56Q43.24 106.56 46.36 104.88Q49.48 103.20 51.64 100.74Q53.80 98.28 54.82 96Q55.84 93.72 55.72 92.64L55.72 92.64Q55.72 91.80 56.92 91.80L56.92 91.80Q58.12 91.80 58.12 93.60L58.12 93.60L58.12 93.72Q58.12 98.64 55.12 102.24Q52.12 105.84 47.62 107.76Q43.12 109.68 38.56 109.68L38.56 109.68Q35.68 109.68 32.56 108.72L32.56 108.72Q26.08 106.44 22.96 102.06Q19.84 97.68 19.84 92.40L19.84 92.40Q19.84 87.48 22.54 82.26Q25.24 77.04 30.52 72.30Q35.80 67.56 43.66 64.08Q51.52 60.60 61.84 59.16L61.84 59.16Q67.36 58.32 72.76 57.96Q78.16 57.60 83.20 57.60L83.20 57.60Q90.16 57.60 96.82 58.26Q103.48 58.92 109.36 60.24L109.36 60.24Q111.04 58.80 112.78 57.72Q114.52 56.64 115.96 56.04L115.96 56.04Q116.80 55.68 117.40 55.56Q118 55.44 118.36 55.44L118.36 55.44Q119.08 55.44 119.08 55.92L119.08 55.92Q119.08 56.52 117.28 57.84L117.28 57.84Q116.08 58.68 115 59.70Q113.92 60.72 113.68 61.20L113.68 61.20Q125.92 64.32 133.54 69.78Q141.16 75.24 141.16 82.68L141.16 82.68Q141.16 86.52 138.64 91.08L138.64 91.08Q136 95.52 131.32 98.22Q126.64 100.92 121.36 102.18Q116.08 103.44 111.52 103.68L111.52 103.68Q115.48 104.88 120.22 107.22Q124.96 109.56 128.98 112.92Q133 116.28 134.32 120.84L134.32 120.84Q135.16 123.72 135.16 126.72L135.16 126.72Q135.16 133.08 131.50 138.24Q127.84 143.40 121.78 147.06Q115.72 150.72 108.52 152.70Q101.32 154.68 94.24 154.68L94.24 154.68Q91.60 154.68 88.84 154.32L88.84 154.32Q77.32 152.88 69.82 150.72Q62.32 148.56 56.68 145.92L56.68 145.92Q45.04 154.68 31.36 154.68ZM92.56 151.20L92.56 151.20Q100 151.20 106.12 148.92Q112.24 146.64 116.74 142.92Q121.24 139.20 123.70 134.64Q126.16 130.08 126.16 125.64L126.16 125.64Q126.16 121.44 123.64 117.48Q121.12 113.52 115.72 110.88L115.72 110.88Q111.04 108.60 106.06 107.10Q101.08 105.60 97.48 104.46Q93.88 103.32 93.28 102.12L93.28 102.12Q93.28 100.68 94.54 100.14Q95.80 99.60 97.84 99.60L97.84 99.60Q100.24 99.60 103.60 99.96Q106.96 100.32 110.68 100.32L110.68 100.32Q114.52 100.32 118.54 98.58Q122.56 96.84 125.92 93.90Q129.28 90.96 131.38 87.42Q133.48 83.88 133.48 80.16L133.48 80.16Q133.48 76.80 131.20 73.56Q128.92 70.32 123.64 67.92L123.64 67.92Q118.36 65.52 112.24 64.08L112.24 64.08Q106.24 72.36 100.24 82.62Q94.24 92.88 88.24 103.38Q82.24 113.88 76.12 123.24Q70 132.60 63.88 139.32L63.88 139.32Q62.44 140.88 61.60 141.66Q60.76 142.44 59.32 143.76L59.32 143.76Q64.96 146.04 72.16 148.08Q79.36 150.12 88.60 150.96L88.60 150.96Q89.56 151.08 90.58 151.14Q91.60 151.20 92.56 151.20ZM28.96 150.96L28.96 150.96Q35.68 151.32 41.26 149.34Q46.84 147.36 51.64 143.76L51.64 143.76Q47.44 141.72 43.06 139.50Q38.68 137.28 33.76 135.48L33.76 135.48Q30.28 134.28 27.40 134.28L27.40 134.28Q22.96 134.28 20.68 136.62Q18.40 138.96 18.40 141.96L18.40 141.96Q18.40 145.08 21.04 147.90Q23.68 150.72 28.96 150.96Z"
        fill="url(#grad-fill)"
        stroke="url(#grad-stroke)"
        stroke-width="2"
        stroke-linecap="round"
        stroke-linejoin="round"
        filter="url(#shadow)"
        
        class="sig-path"
        stroke-dasharray="1111"
        stroke-dashoffset="1111"
        fill-opacity="0"
      >
        <animate
          attributeName="stroke-dashoffset"
          from="1111"
          to="0"
          dur="0.7692307692307692s"
          begin="cycle.begin + 0s"
          fill="freeze"
        />
        <animate
          attributeName="stroke-dashoffset"
          from="0"
          to="1111"
          dur="0.7692307692307692s"
          begin="cycle.begin + 14.076923076923077s"
          fill="freeze"
        />
      
        <animate
          attributeName="fill-opacity"
          from="0"
          to="1"
          dur="0.3s"
          begin="cycle.begin + 0.46153846153846145s"
          fill="freeze"
        />
        <animate
          attributeName="fill-opacity"
          from="1"
          to="0"
          dur="0.3s"
          begin="cycle.begin + 14.384615384615385s"
          fill="freeze"
        />
      </path>
    
      <path
        d="M156.64 150.12L156.64 150.12Q154.36 150.12 152.08 148.26Q149.80 146.40 149.80 142.20L149.80 142.20Q149.80 138.96 151.36 134.76L151.36 134.76Q152.80 130.68 155.26 126.84Q157.72 123 158.80 120.60L158.80 120.60Q159.16 119.64 159.16 118.92L159.16 118.92Q159.16 116.76 156.46 115.80Q153.76 114.84 149.44 114.72L149.44 114.72L148 118.68Q146.68 122.52 144.34 127.68Q142 132.84 139.18 137.64Q136.36 142.44 133.36 145.32L133.36 145.32Q133.12 145.56 132.76 145.56L132.76 145.56Q132.28 145.56 132.10 144.96Q131.92 144.36 132.64 143.52L132.64 143.52Q137.32 137.28 141.04 129.66Q144.76 122.04 147.34 114.12Q149.92 106.20 151.12 99.48L151.12 99.48Q151.48 97.56 152.44 96.66Q153.40 95.76 154.48 95.76L154.48 95.76Q156.04 95.76 157.36 97.26Q158.68 98.76 158.68 101.52L158.68 101.52Q158.68 102 158.62 102.60Q158.56 103.20 158.44 103.80L158.44 103.80Q157.96 106.32 155.62 108.54Q153.28 110.76 151.84 111.84L151.84 111.84Q153.04 111.96 154.36 112.02Q155.68 112.08 157.24 112.08L157.24 112.08Q162.88 112.08 168.40 111.36L168.40 111.36Q168.64 112.08 168.64 112.44L168.64 112.44Q168.64 114 167.74 116.40Q166.84 118.80 165.88 120.72L165.88 120.72Q165.40 121.80 163.96 124.62Q162.52 127.44 160.84 130.98Q159.16 134.52 158.02 137.94Q156.88 141.36 156.88 143.76L156.88 143.76Q156.88 146.88 159.28 146.88L159.28 146.88Q161.08 146.88 163.24 144.54Q165.40 142.20 167.50 138.78Q169.60 135.36 171.34 132.06Q173.08 128.76 174.04 126.84L174.04 126.84Q174.52 125.64 175.36 125.64L175.36 125.64Q175.84 125.64 175.84 126.48L175.84 126.48Q175.84 126.96 175.48 127.92L175.48 127.92Q174.16 130.68 172.36 134.16Q170.56 137.64 168.34 141Q166.12 144.36 163.54 146.82Q160.96 149.28 157.96 150L157.96 150Q157.60 150.12 156.64 150.12Z"
        fill="url(#grad-fill)"
        stroke="url(#grad-stroke)"
        stroke-width="2"
        stroke-linecap="round"
        stroke-linejoin="round"
        filter="url(#shadow)"
        
        class="sig-path"
        stroke-dasharray="278"
        stroke-dashoffset="278"
        fill-opacity="0"
      >
        <animate
          attributeName="stroke-dashoffset"
          from="278"
          to="0"
          dur="0.7692307692307692s"
          begin="cycle.begin + 0.7692307692307692s"
          fill="freeze"
        />
        <animate
          attributeName="stroke-dashoffset"
          from="0"
          to="278"
          dur="0.7692307692307692s"
          begin="cycle.begin + 13.307692307692307s"
          fill="freeze"
        />
      
        <animate
          attributeName="fill-opacity"
          from="0"
          to="1"
          dur="0.3s"
          begin="cycle.begin + 1.2307692307692306s"
          fill="freeze"
        />
        <animate
          attributeName="fill-opacity"
          from="1"
          to="0"
          dur="0.3s"
          begin="cycle.begin + 13.615384615384615s"
          fill="freeze"
        />
      </path>
    
      <path
        d="M177.52 150L177.52 150Q176.20 150 174.34 149.40Q172.48 148.80 171.10 147.18Q169.72 145.56 169.72 142.32L169.72 142.32Q169.72 139.20 171.22 136.26Q172.72 133.32 174.04 130.56L174.04 130.56Q173.68 130.56 173.26 130.32Q172.84 130.08 172.84 129.60L172.84 129.60Q172.84 129.12 173.08 128.64L173.08 128.64Q173.56 127.68 174.16 126.60Q174.76 125.52 175.24 124.32L175.24 124.32Q177.04 120.60 178.84 117.18Q180.64 113.76 181.96 111.12L181.96 111.12Q183.28 108.48 186.52 108.48L186.52 108.48L193.96 108.48Q191.92 110.04 190.30 111.90Q188.68 113.76 186.28 118.68L186.28 118.68Q186.28 118.68 185.44 120.36Q184.60 122.04 183.34 124.62Q182.08 127.20 180.82 129.84Q179.56 132.48 178.72 134.28L178.72 134.28Q177.16 137.64 176.68 139.62Q176.20 141.60 176.20 143.28L176.20 143.28Q176.20 147.24 178.84 147.24L178.84 147.24Q181.72 147.24 185.80 142.56L185.80 142.56Q189.16 138.60 192.40 133.08Q195.64 127.56 198.58 121.68Q201.52 115.80 203.80 111.12L203.80 111.12Q205.12 108.48 208.48 108.48L208.48 108.48L215.08 108.48Q213.28 109.92 212.08 111.18Q210.88 112.44 209.74 114.54Q208.60 116.64 206.68 120.48L206.68 120.48Q205.12 123.72 203.38 127.38Q201.64 131.04 200.32 134.28Q199.00 137.52 198.64 139.56L198.64 139.56Q198.52 140.76 198.40 141.36Q198.28 141.96 198.28 142.68L198.28 142.68Q198.28 144.96 199.06 145.92Q199.84 146.88 200.92 146.88L200.92 146.88Q203.80 146.88 206.74 143.64Q209.68 140.40 212.38 135.72Q215.08 131.04 217.00 126.84L217.00 126.84Q217.72 125.52 218.32 125.52L218.32 125.52Q219.04 125.52 219.04 126.36L219.04 126.36Q219.04 126.96 218.56 127.80L218.56 127.80Q217.24 130.68 215.32 134.40Q213.40 138.12 211.00 141.72Q208.60 145.32 205.72 147.66Q202.84 150 199.48 150L199.48 150Q196.48 150 194.56 147.78Q192.64 145.56 192.64 141.48L192.64 141.48Q192.64 138.24 193.84 134.52L193.84 134.52Q191.80 138.12 189.16 141.72Q186.52 145.32 183.52 147.66Q180.52 150 177.52 150Z"
        fill="url(#grad-fill)"
        stroke="url(#grad-stroke)"
        stroke-width="2"
        stroke-linecap="round"
        stroke-linejoin="round"
        filter="url(#shadow)"
        
        class="sig-path"
        stroke-dasharray="312"
        stroke-dashoffset="312"
        fill-opacity="0"
      >
        <animate
          attributeName="stroke-dashoffset"
          from="312"
          to="0"
          dur="0.7692307692307692s"
          begin="cycle.begin + 1.5384615384615383s"
          fill="freeze"
        />
        <animate
          attributeName="stroke-dashoffset"
          from="0"
          to="312"
          dur="0.7692307692307692s"
          begin="cycle.begin + 12.538461538461537s"
          fill="freeze"
        />
      
        <animate
          attributeName="fill-opacity"
          from="0"
          to="1"
          dur="0.3s"
          begin="cycle.begin + 1.9999999999999998s"
          fill="freeze"
        />
        <animate
          attributeName="fill-opacity"
          from="1"
          to="0"
          dur="0.3s"
          begin="cycle.begin + 12.846153846153845s"
          fill="freeze"
        />
      </path>
    
      <path
        d="M226.72 150.48L226.72 150.48Q219.88 150.48 217.12 147.18Q214.36 143.88 214.36 139.08L214.36 139.08Q214.36 133.80 216.82 127.80Q219.28 121.80 222.64 117.36L222.64 117.36Q226.12 112.68 230.32 110.10Q234.52 107.52 238.84 107.52L238.84 107.52Q243.40 107.52 245.56 109.80Q247.72 112.08 247.24 115.92L247.24 115.92Q247.00 118.32 244.96 120.66Q242.92 123 240.88 123L240.88 123Q239.92 123 239.20 122.28L239.20 122.28Q240.16 121.08 241.24 119.40Q242.32 117.72 242.80 116.16L242.80 116.16Q243.28 114.72 243.28 113.28L243.28 113.28Q243.28 110.28 240.40 110.28L240.40 110.28Q237.16 110.28 233.62 113.58Q230.08 116.88 227.44 120.72L227.44 120.72Q226.36 122.16 224.86 125.22Q223.36 128.28 222.16 131.94Q220.96 135.60 220.96 139.08L220.96 139.08Q220.96 142.68 222.58 145.50Q224.20 148.32 228.04 148.32L228.04 148.32Q233.32 148.32 237.10 145.02Q240.88 141.72 243.82 136.80Q246.76 131.88 249.16 127.20L249.16 127.20Q249.88 125.76 250.60 125.76L250.60 125.76Q251.20 125.76 251.20 126.72L251.20 126.72Q251.20 127.20 250.84 127.92L250.84 127.92Q247.96 134.16 244.96 139.32Q241.96 144.48 237.70 147.48Q233.44 150.48 226.72 150.48Z"
        fill="url(#grad-fill)"
        stroke="url(#grad-stroke)"
        stroke-width="2"
        stroke-linecap="round"
        stroke-linejoin="round"
        filter="url(#shadow)"
        
        class="sig-path"
        stroke-dasharray="225"
        stroke-dashoffset="225"
        fill-opacity="0"
      >
        <animate
          attributeName="stroke-dashoffset"
          from="225"
          to="0"
          dur="0.7692307692307692s"
          begin="cycle.begin + 2.3076923076923075s"
          fill="freeze"
        />
        <animate
          attributeName="stroke-dashoffset"
          from="0"
          to="225"
          dur="0.7692307692307692s"
          begin="cycle.begin + 11.769230769230768s"
          fill="freeze"
        />
      
        <animate
          attributeName="fill-opacity"
          from="0"
          to="1"
          dur="0.3s"
          begin="cycle.begin + 2.769230769230769s"
          fill="freeze"
        />
        <animate
          attributeName="fill-opacity"
          from="1"
          to="0"
          dur="0.3s"
          begin="cycle.begin + 12.076923076923077s"
          fill="freeze"
        />
      </path>
    
      <path
        d="M256.60 150.48L256.60 150.48Q252.16 150.48 248.62 147.60Q245.08 144.72 245.08 138.84L245.08 138.84Q245.08 133.44 247.72 127.26Q250.36 121.08 254.44 116.40L254.44 116.40Q257.92 112.32 262.24 109.68Q266.56 107.04 270.40 107.04L270.40 107.04Q273.04 107.04 274.96 108.48L274.96 108.48Q277.00 110.04 277.00 112.92L277.00 112.92Q277.00 115.92 274.72 119.52Q272.44 123.12 268.24 126.24L268.24 126.24Q266.44 127.56 263.68 128.76Q260.92 129.96 258.16 130.74Q255.40 131.52 253.60 131.52L253.60 131.52Q253.00 132.96 252.46 135.36Q251.92 137.76 251.92 140.28L251.92 140.28Q251.92 143.28 253.12 145.68Q254.32 148.08 257.56 148.08L257.56 148.08Q261.52 148.08 264.76 145.80Q268.00 143.52 270.52 140.10Q273.04 136.68 274.78 133.20Q276.52 129.72 277.60 127.32L277.60 127.32Q278.32 125.64 279.52 125.64L279.52 125.64Q280.12 125.64 280.12 126.24L280.12 126.24Q280.12 126.72 279.76 127.44L279.76 127.44Q278.08 131.04 276.16 135.06Q274.24 139.08 271.60 142.62Q268.96 146.16 265.30 148.32Q261.64 150.48 256.60 150.48ZM254.44 129.36L254.44 129.36Q256.12 129.36 260.08 128.10Q264.04 126.84 267.28 124.08L267.28 124.08Q270.40 121.32 272.08 118.02Q273.76 114.72 273.76 112.44L273.76 112.44Q273.76 109.80 271.84 109.80L271.84 109.80Q270.40 109.80 267.88 111.72Q265.36 113.64 261.64 118.20L261.64 118.20Q259.36 121.08 257.32 124.44Q255.28 127.80 254.44 129.36Z"
        fill="url(#grad-fill)"
        stroke="url(#grad-stroke)"
        stroke-width="2"
        stroke-linecap="round"
        stroke-linejoin="round"
        filter="url(#shadow)"
        
        class="sig-path"
        stroke-dasharray="253"
        stroke-dashoffset="253"
        fill-opacity="0"
      >
        <animate
          attributeName="stroke-dashoffset"
          from="253"
          to="0"
          dur="0.7692307692307692s"
          begin="cycle.begin + 3.0769230769230766s"
          fill="freeze"
        />
        <animate
          attributeName="stroke-dashoffset"
          from="0"
          to="253"
          dur="0.7692307692307692s"
          begin="cycle.begin + 11s"
          fill="freeze"
        />
      
        <animate
          attributeName="fill-opacity"
          from="0"
          to="1"
          dur="0.3s"
          begin="cycle.begin + 3.5384615384615383s"
          fill="freeze"
        />
        <animate
          attributeName="fill-opacity"
          from="1"
          to="0"
          dur="0.3s"
          begin="cycle.begin + 11.307692307692308s"
          fill="freeze"
        />
      </path>
    
      <path
        d="M317.20 162.36L317.20 162.36Q312.76 162.36 308.14 161.40Q303.52 160.44 298.96 158.52L298.96 158.52Q291.52 155.28 286.96 150.06Q282.40 144.84 280.36 138.24Q278.32 131.64 278.32 124.44L278.32 124.44Q278.32 116.88 280.18 109.32Q282.04 101.76 285.40 94.86Q288.76 87.96 292.96 82.56L292.96 82.56Q292.12 79.44 291.58 75.36Q291.04 71.28 291.04 67.08L291.04 67.08Q291.04 60.72 292.48 54.96L292.48 54.96Q292.96 53.28 294.16 53.28L294.16 53.28Q295.00 53.28 295.00 54.48L295.00 54.48Q295.00 55.20 294.88 55.56L294.88 55.56Q294.64 57.36 294.46 59.28Q294.28 61.20 294.28 63.24L294.28 63.24Q294.28 67.32 294.76 71.28Q295.24 75.24 295.84 78.60L295.84 78.60Q304.60 67.20 315.94 61.62Q327.28 56.04 339.76 56.04L339.76 56.04Q343.00 56.04 346.00 56.40L346.00 56.40Q355.60 57.48 361.72 61.14Q367.84 64.80 370.78 70.08Q373.72 75.36 373.72 81.24L373.72 81.24Q373.72 87 371.08 92.64Q368.44 98.28 363.40 102.90Q358.36 107.52 351.10 110.34Q343.84 113.16 334.72 113.16L334.72 113.16Q332.68 113.16 330.64 113.04Q328.60 112.92 326.20 112.56L326.20 112.56Q316.72 111.12 308.92 106.44Q301.12 101.76 296.32 92.04L296.32 92.04Q295.36 93.24 293.68 96.90Q292.00 100.56 290.32 105.72Q288.64 110.88 287.44 116.94Q286.24 123 286.24 129.12L286.24 129.12Q286.24 135 287.80 140.46Q289.36 145.92 293.20 150.06Q297.04 154.20 303.64 156.24L303.64 156.24Q306.88 157.20 310.36 157.68Q313.84 158.16 317.44 158.16L317.44 158.16Q324.40 158.16 331.24 156.36Q338.08 154.56 343.96 151.08L343.96 151.08Q351.76 146.52 355.96 140.46Q360.16 134.40 363.76 126.84L363.76 126.84Q364.24 125.64 365.08 125.64L365.08 125.64Q365.68 125.64 365.68 126.48L365.68 126.48Q365.68 127.08 365.20 127.92L365.20 127.92Q362.68 133.20 360.16 137.58Q357.64 141.96 354.28 145.68Q350.92 149.40 345.76 153L345.76 153Q339.88 157.08 332.56 159.72Q325.24 162.36 317.20 162.36ZM334.00 110.04L334.00 110.04Q342.28 110.04 348.64 107.58Q355.00 105.12 359.38 101.10Q363.76 97.08 365.98 92.16Q368.20 87.24 368.20 82.20L368.20 82.20Q368.20 77.28 365.92 72.84Q363.64 68.40 359.02 65.22Q354.40 62.04 347.20 61.08L347.20 61.08Q344.56 60.72 341.92 60.72L341.92 60.72Q333.76 60.72 325.90 64.14Q318.04 67.56 311.08 73.74Q304.12 79.92 298.72 88.20L298.72 88.20Q302.92 98.64 310.54 103.56Q318.16 108.48 328.00 109.68L328.00 109.68Q331.12 110.04 334.00 110.04Z"
        fill="url(#grad-fill)"
        stroke="url(#grad-stroke)"
        stroke-width="2"
        stroke-linecap="round"
        stroke-linejoin="round"
        filter="url(#shadow)"
        
        class="sig-path"
        stroke-dasharray="763"
        stroke-dashoffset="763"
        fill-opacity="0"
      >
        <animate
          attributeName="stroke-dashoffset"
          from="763"
          to="0"
          dur="0.7692307692307692s"
          begin="cycle.begin + 3.846153846153846s"
          fill="freeze"
        />
        <animate
          attributeName="stroke-dashoffset"
          from="0"
          to="763"
          dur="0.7692307692307692s"
          begin="cycle.begin + 10.23076923076923s"
          fill="freeze"
        />
      
        <animate
          attributeName="fill-opacity"
          from="0"
          to="1"
          dur="0.3s"
          begin="cycle.begin + 4.3076923076923075s"
          fill="freeze"
        />
        <animate
          attributeName="fill-opacity"
          from="1"
          to="0"
          dur="0.3s"
          begin="cycle.begin + 10.538461538461538s"
          fill="freeze"
        />
      </path>
    
      <path
        d="M352.00 150.96L352.00 150.96Q357.04 140.64 362.50 129.30Q367.96 117.96 373.72 106.44Q379.48 94.92 385.12 84.48L385.12 84.48Q387.16 80.88 388.90 78.84Q390.64 76.80 393.52 76.80L393.52 76.80Q394.60 76.80 396.04 77.16Q397.48 77.52 398.80 77.28L398.80 77.28Q397.24 78.96 394.54 83.16Q391.84 87.36 388.54 93.24Q385.24 99.12 381.58 105.90Q377.92 112.68 374.38 119.58Q370.84 126.48 367.84 132.48L367.84 132.48Q370.24 129.36 372.76 126.60Q375.28 123.84 377.68 121.80L377.68 121.80Q380.32 119.40 384.34 116.76Q388.36 114.12 392.38 112.20Q396.40 110.28 398.80 110.28L398.80 110.28Q399.64 110.28 400.00 110.40L400.00 110.40Q400.00 110.40 398.68 112.80Q397.36 115.20 395.38 118.92Q393.40 122.64 391.30 126.96Q389.20 131.28 387.64 135.18Q386.08 139.08 385.60 141.60L385.60 141.60Q385.24 143.52 385.24 144.84L385.24 144.84Q385.24 146.76 385.96 147.42Q386.68 148.08 387.52 148.08L387.52 148.08Q389.56 148.08 391.96 145.56Q394.36 143.04 396.64 139.38Q398.92 135.72 400.78 132.24Q402.64 128.76 403.60 126.84L403.60 126.84Q404.32 125.52 405.04 125.52L405.04 125.52Q405.76 125.52 405.76 126.48L405.76 126.48Q405.76 126.96 405.40 127.92L405.40 127.92Q403.84 131.04 401.86 134.94Q399.88 138.84 397.42 142.38Q394.96 145.92 392.02 148.20Q389.08 150.48 385.72 150.48L385.72 150.48Q383.32 150.48 380.80 148.80Q378.28 147.12 378.28 142.68L378.28 142.68Q378.28 141.36 378.52 139.86Q378.76 138.36 379.36 136.44L379.36 136.44Q380.08 134.04 381.76 131.10Q383.44 128.16 386.08 123.72L386.08 123.72Q387.28 121.68 387.28 120.48L387.28 120.48Q387.28 119.04 385.84 119.04L385.84 119.04Q384.64 119.04 382.60 120.24Q380.56 121.44 377.44 124.44L377.44 124.44Q374.44 127.32 370.00 132.84Q365.56 138.36 360.52 148.32L360.52 148.32Q359.68 149.88 358.66 149.94Q357.64 150 355.96 150.12L355.96 150.12Q354.88 150.24 353.80 150.30Q352.72 150.36 352.00 150.96Z"
        fill="url(#grad-fill)"
        stroke="url(#grad-stroke)"
        stroke-width="2"
        stroke-linecap="round"
        stroke-linejoin="round"
        filter="url(#shadow)"
        
        class="sig-path"
        stroke-dasharray="389"
        stroke-dashoffset="389"
        fill-opacity="0"
      >
        <animate
          attributeName="stroke-dashoffset"
          from="389"
          to="0"
          dur="0.7692307692307692s"
          begin="cycle.begin + 4.615384615384615s"
          fill="freeze"
        />
        <animate
          attributeName="stroke-dashoffset"
          from="0"
          to="389"
          dur="0.7692307692307692s"
          begin="cycle.begin + 9.46153846153846s"
          fill="freeze"
        />
      
        <animate
          attributeName="fill-opacity"
          from="0"
          to="1"
          dur="0.3s"
          begin="cycle.begin + 5.076923076923077s"
          fill="freeze"
        />
        <animate
          attributeName="fill-opacity"
          from="1"
          to="0"
          dur="0.3s"
          begin="cycle.begin + 9.769230769230768s"
          fill="freeze"
        />
      </path>
    
      <path
        d="M417.04 101.28L417.04 101.28Q415.24 101.28 414.10 100.02Q412.96 98.76 412.96 96.96L412.96 96.96Q412.96 94.68 414.76 93Q416.56 91.32 418.72 91.32L418.72 91.32Q420.64 91.32 421.84 92.52Q423.04 93.72 423.04 95.40L423.04 95.40Q423.04 97.68 421.24 99.48Q419.44 101.28 417.04 101.28ZM407.32 150L407.32 150Q402.88 150 401.08 147.42Q399.28 144.84 399.28 141.48L399.28 141.48Q399.28 139.68 399.70 137.82Q400.12 135.96 400.72 134.40L400.72 134.40L408.76 113.88Q409.12 112.92 409.12 112.20L409.12 112.20Q409.12 111 408.52 110.10Q407.92 109.20 407.68 108.84L407.68 108.84L414.28 108.60Q416.08 108.48 416.86 109.02Q417.64 109.56 417.64 110.28L417.64 110.28Q417.64 111 416.80 112.92L416.80 112.92L406.84 136.32Q406.84 136.32 406.18 137.82Q405.52 139.32 405.40 139.80L405.40 139.80Q405.04 141.60 404.92 142.08Q404.80 142.56 404.80 142.68Q404.80 142.80 404.80 143.64L404.80 143.64Q404.80 145.20 405.58 146.28Q406.36 147.36 408.28 147.36L408.28 147.36Q409.48 147.36 411.04 146.64Q412.60 145.92 413.32 145.20L413.32 145.20Q416.32 142.08 419.26 136.98Q422.20 131.88 424.72 126.84L424.72 126.84Q425.20 125.64 425.92 125.64L425.92 125.64Q426.52 125.64 426.52 126.48L426.52 126.48Q426.52 126.96 426.16 127.92L426.16 127.92Q424.96 130.44 423.16 134.16Q421.36 137.88 418.90 141.54Q416.44 145.20 413.56 147.60Q410.68 150 407.32 150Z"
        fill="url(#grad-fill)"
        stroke="url(#grad-stroke)"
        stroke-width="2"
        stroke-linecap="round"
        stroke-linejoin="round"
        filter="url(#shadow)"
        
        class="sig-path"
        stroke-dasharray="195"
        stroke-dashoffset="195"
        fill-opacity="0"
      >
        <animate
          attributeName="stroke-dashoffset"
          from="195"
          to="0"
          dur="0.7692307692307692s"
          begin="cycle.begin + 5.384615384615384s"
          fill="freeze"
        />
        <animate
          attributeName="stroke-dashoffset"
          from="0"
          to="195"
          dur="0.7692307692307692s"
          begin="cycle.begin + 8.692307692307692s"
          fill="freeze"
        />
      
        <animate
          attributeName="fill-opacity"
          from="0"
          to="1"
          dur="0.3s"
          begin="cycle.begin + 5.846153846153846s"
          fill="freeze"
        />
        <animate
          attributeName="fill-opacity"
          from="1"
          to="0"
          dur="0.3s"
          begin="cycle.begin + 9s"
          fill="freeze"
        />
      </path>
    
      <path
        d="M450.64 150.36L450.64 150.36Q449.32 150.48 447.64 149.76Q445.96 149.04 444.70 147.12Q443.44 145.20 443.44 141.72L443.44 141.72Q443.44 138.84 444.52 134.76L444.52 134.76Q443.08 137.04 440.80 140.34Q438.52 143.64 435.88 146.16L435.88 146.16Q433.60 148.32 431.56 149.28Q429.52 150.24 427.84 150.24L427.84 150.24Q424.72 150.24 422.80 147.42Q420.88 144.60 420.88 140.04L420.88 140.04Q420.88 135.24 423.28 129.12Q425.68 123 431.08 116.40L431.08 116.40Q434.56 112.20 439.54 109.62Q444.52 107.04 449.32 107.04L449.32 107.04Q452.08 107.04 454.60 107.94Q457.12 108.84 459.04 110.88L459.04 110.88Q459.88 111.72 459.88 112.80L459.88 112.80Q459.88 113.52 459.28 114Q458.68 114.48 457.72 114.24L457.72 114.24Q456.40 110.04 452.08 110.04L452.08 110.04Q450.04 110.04 447.40 111.36L447.40 111.36Q443.32 113.52 438.94 118.44Q434.56 123.36 431.32 128.64L431.32 128.64Q430.84 129.36 429.82 131.40Q428.80 133.44 427.84 135.96Q426.88 138.48 426.52 140.88L426.52 140.88Q426.40 141.60 426.40 141.90Q426.40 142.20 426.40 142.80L426.40 142.80Q426.40 146.76 429.40 146.76L429.40 146.76Q433.00 146.76 437.56 141.48L437.56 141.48Q440.68 137.64 443.20 133.44Q445.72 129.24 448.36 124.44L448.36 124.44Q450.16 121.20 451.72 119.04Q453.28 116.88 456.16 116.88L456.16 116.88Q457.48 116.88 458.80 117.24Q460.12 117.60 461.56 117.36L461.56 117.36Q460.60 118.32 458.98 120.96Q457.36 123.60 455.56 126.96Q453.76 130.32 452.32 133.80Q450.88 137.28 450.28 139.80L450.28 139.80Q450.16 140.52 449.98 141.84Q449.80 143.16 449.80 143.76L449.80 143.76Q449.80 147.12 451.72 147.12L451.72 147.12Q453.64 147.12 455.86 144.84Q458.08 142.56 460.24 139.20Q462.40 135.84 464.20 132.42Q466.00 129 467.08 126.84L467.08 126.84Q467.56 125.64 468.52 125.64L468.52 125.64Q469.12 125.64 469.12 126.48L469.12 126.48Q469.12 126.84 468.76 127.80L468.76 127.80Q467.32 130.80 465.28 134.58Q463.24 138.36 460.84 141.90Q458.44 145.44 455.86 147.78Q453.28 150.12 450.64 150.36Z"
        fill="url(#grad-fill)"
        stroke="url(#grad-stroke)"
        stroke-width="2"
        stroke-linecap="round"
        stroke-linejoin="round"
        filter="url(#shadow)"
        
        class="sig-path"
        stroke-dasharray="319"
        stroke-dashoffset="319"
        fill-opacity="0"
      >
        <animate
          attributeName="stroke-dashoffset"
          from="319"
          to="0"
          dur="0.7692307692307692s"
          begin="cycle.begin + 6.153846153846153s"
          fill="freeze"
        />
        <animate
          attributeName="stroke-dashoffset"
          from="0"
          to="319"
          dur="0.7692307692307692s"
          begin="cycle.begin + 7.9230769230769225s"
          fill="freeze"
        />
      
        <animate
          attributeName="fill-opacity"
          from="0"
          to="1"
          dur="0.3s"
          begin="cycle.begin + 6.615384615384615s"
          fill="freeze"
        />
        <animate
          attributeName="fill-opacity"
          from="1"
          to="0"
          dur="0.3s"
          begin="cycle.begin + 8.23076923076923s"
          fill="freeze"
        />
      </path>
    
      </g>
    </svg>