<svg xmlns="http://www.w3.org/2000/svg" viewBox="-30 -10 521.5999999999999 200" width="521.5999999999999" height="200" style="display: block; max-width: 100%; height: auto; overflow: visible;">
      <defs>
        <animate id="cycle" begin="0s;cycle.end" dur="7.5s"/>
        
      <linearGradient id="grad-fill" x1="0%" y1="0%" x2="100%" y2="0%">
        <stop offset="0%" stop-color="#d2dd31" />
        <stop offset="100%" stop-color="#26e3c3" />
      </linearGradient>
    
      <linearGradient id="grad-stroke" x1="0%" y1="0%" x2="100%" y2="0%">
        <stop offset="0%" stop-color="#d2dd31" />
        <stop offset="100%" stop-color="#26e3c3" />
      </linearGradient>
    
      <filter id="glow" x="-50%" y="-50%" width="200%" height="200%">
        <feGaussianBlur stdDeviation="3.5" result="coloredBlur"/>
        <feMerge>
          <feMergeNode in="coloredBlur"/>
          <feMergeNode in="SourceGraphic"/>
        </feMerge>
      </filter>
    
      <filter id="shadow" x="-50%" y="-50%" width="200%" height="200%">
        <feDropShadow dx="4" dy="4" stdDeviation="3" flood-opacity="0.6"/>
      </filter>
    
      <pattern id="texture-dots" x="-0.7999999999999545" y="-9" width="26" height="26" patternUnits="userSpaceOnUse">
        <circle cx="13" cy="13" r="1.5" fill="#3b82f6" fill-opacity="0.3"/>
      </pattern>
    
        <style>
          
        </style>
      </defs>
      <rect x="-30" y="-10" width="521.5999999999999" height="200" fill="#ffffff" rx="8" />
      <rect x="-6" y="14" width="473.5999999999999" height="152" 
             fill="url(#texture-dots)" 
             class="texture-overlay texture-dots" 
             data-texture="dots"
             data-color="#3b82f6"
             data-size="26"
             data-opacity="0.3"
             pointer-events="none"/>
      <g transform="translate(0, -8)">
      
      <path
        d="M 355 701 Q 383 708 412 712 Q 431 715 436 709 Q 443 699 437 672 Q 427 599 408 567 Q 389 537 361 544 Q 340 550 323 556 Q 299 565 315 541 Q 349 501 365 471 Q 378 453 394 465 Q 448 493 488 633 Q 497 682 517 702 Q 530 714 524 724 Q 517 734 468 758 Q 449 767 431 755 Q 415 746 366 732 L 312 719 Q 230 700 162 695 Q 146 694 143 686 Q 142 679 164 668 Q 186 655 204 661 Q 255 677 301 688 L 355 701 Z"
        fill="url(#grad-fill)"
        stroke="url(#grad-stroke)"
        stroke-width="2"
        stroke-linecap="round"
        stroke-linejoin="round"
        filter="url(#shadow)"
        transform="translate(10, 30) scale(0.1171875, -0.1171875) translate(0, -1024)"
        class="sig-path"
        stroke-dasharray="166"
        stroke-dashoffset="-166"
        fill-opacity="0"
      >
        <animate
          attributeName="stroke-dashoffset"
          from="-166"
          to="0"
          dur="0.17418677859391396s"
          begin="cycle.begin + 0s"
          fill="freeze"
        />
        <animate
          attributeName="stroke-dashoffset"
          from="0"
          to="-166"
          dur="0.17418677859391396s"
          begin="cycle.begin + 6.8258132214060865s"
          fill="freeze"
        />
      
        <animate
          attributeName="fill-opacity"
          from="0"
          to="1"
          dur="0.3s"
          begin="cycle.begin + 0.10451206715634838s"
          fill="freeze"
        />
        <animate
          attributeName="fill-opacity"
          from="1"
          to="0"
          dur="0.3s"
          begin="cycle.begin + 6.895487932843652s"
          fill="freeze"
        />
      </path>
    
      <path
        d="M 301 688 Q 256 580 134 460 Q 128 453 134 450 Q 141 449 151 454 Q 206 484 250 528 Q 314 588 355 701 L 366 732 Q 375 768 392 804 Q 399 814 392 822 Q 386 831 357 844 Q 336 853 328 850 Q 316 846 319 832 Q 325 793 312 719 L 301 688 Z"
        fill="url(#grad-fill)"
        stroke="url(#grad-stroke)"
        stroke-width="2"
        stroke-linecap="round"
        stroke-linejoin="round"
        filter="url(#shadow)"
        transform="translate(10, 30) scale(0.1171875, -0.1171875) translate(0, -1024)"
        class="sig-path"
        stroke-dasharray="119"
        stroke-dashoffset="-119"
        fill-opacity="0"
      >
        <animate
          attributeName="stroke-dashoffset"
          from="-119"
          to="0"
          dur="0.1248688352570829s"
          begin="cycle.begin + 0.17418677859391396s"
          fill="freeze"
        />
        <animate
          attributeName="stroke-dashoffset"
          from="0"
          to="-119"
          dur="0.1248688352570829s"
          begin="cycle.begin + 6.700944386149003s"
          fill="freeze"
        />
      
        <animate
          attributeName="fill-opacity"
          from="0"
          to="1"
          dur="0.3s"
          begin="cycle.begin + 0.24910807974816368s"
          fill="freeze"
        />
        <animate
          attributeName="fill-opacity"
          from="1"
          to="0"
          dur="0.3s"
          begin="cycle.begin + 6.750891920251837s"
          fill="freeze"
        />
      </path>
    
      <path
        d="M 590 740 Q 580 744 557 749 Q 544 753 541 748 Q 534 742 542 726 Q 567 674 579 587 Q 582 562 596 544 Q 612 522 619 537 Q 623 547 623 563 L 621 596 Q 611 687 610 711 C 609 733 609 733 590 740 Z"
        fill="url(#grad-fill)"
        stroke="url(#grad-stroke)"
        stroke-width="2"
        stroke-linecap="round"
        stroke-linejoin="round"
        filter="url(#shadow)"
        transform="translate(10, 30) scale(0.1171875, -0.1171875) translate(0, -1024)"
        class="sig-path"
        stroke-dasharray="61"
        stroke-dashoffset="-61"
        fill-opacity="0"
      >
        <animate
          attributeName="stroke-dashoffset"
          from="-61"
          to="0"
          dur="0.06400839454354669s"
          begin="cycle.begin + 0.2990556138509969s"
          fill="freeze"
        />
        <animate
          attributeName="stroke-dashoffset"
          from="0"
          to="-61"
          dur="0.06400839454354669s"
          begin="cycle.begin + 6.636935991605457s"
          fill="freeze"
        />
      
        <animate
          attributeName="fill-opacity"
          from="0"
          to="1"
          dur="0.3s"
          begin="cycle.begin + 0.3374606505771249s"
          fill="freeze"
        />
        <animate
          attributeName="fill-opacity"
          from="1"
          to="0"
          dur="0.3s"
          begin="cycle.begin + 6.662539349422875s"
          fill="freeze"
        />
      </path>
    
      <path
        d="M 802 622 Q 824 694 855 712 Q 871 731 857 748 Q 841 761 789 785 Q 771 792 750 784 Q 710 768 672 758 Q 632 748 590 740 C 561 734 581 704 610 711 Q 617 712 628 716 Q 686 726 741 738 Q 754 741 761 735 Q 773 723 748 622 C 741 593 793 593 802 622 Z"
        fill="url(#grad-fill)"
        stroke="url(#grad-stroke)"
        stroke-width="2"
        stroke-linecap="round"
        stroke-linejoin="round"
        filter="url(#shadow)"
        transform="translate(10, 30) scale(0.1171875, -0.1171875) translate(0, -1024)"
        class="sig-path"
        stroke-dasharray="99"
        stroke-dashoffset="-99"
        fill-opacity="0"
      >
        <animate
          attributeName="stroke-dashoffset"
          from="-99"
          to="0"
          dur="0.10388247639034627s"
          begin="cycle.begin + 0.36306400839454356s"
          fill="freeze"
        />
        <animate
          attributeName="stroke-dashoffset"
          from="0"
          to="-99"
          dur="0.10388247639034627s"
          begin="cycle.begin + 6.53305351521511s"
          fill="freeze"
        />
      
        <animate
          attributeName="fill-opacity"
          from="0"
          to="1"
          dur="0.3s"
          begin="cycle.begin + 0.42539349422875133s"
          fill="freeze"
        />
        <animate
          attributeName="fill-opacity"
          from="1"
          to="0"
          dur="0.3s"
          begin="cycle.begin + 6.574606505771249s"
          fill="freeze"
        />
      </path>
    
      <path
        d="M 623 563 Q 632 562 643 564 Q 698 576 820 586 Q 830 587 832 596 Q 832 603 802 622 C 788 631 777 629 748 622 Q 678 606 621 596 C 591 591 593 564 623 563 Z"
        fill="url(#grad-fill)"
        stroke="url(#grad-stroke)"
        stroke-width="2"
        stroke-linecap="round"
        stroke-linejoin="round"
        filter="url(#shadow)"
        transform="translate(10, 30) scale(0.1171875, -0.1171875) translate(0, -1024)"
        class="sig-path"
        stroke-dasharray="59"
        stroke-dashoffset="-59"
        fill-opacity="0"
      >
        <animate
          attributeName="stroke-dashoffset"
          from="-59"
          to="0"
          dur="0.06190975865687303s"
          begin="cycle.begin + 0.4669464847848898s"
          fill="freeze"
        />
        <animate
          attributeName="stroke-dashoffset"
          from="0"
          to="-59"
          dur="0.06190975865687303s"
          begin="cycle.begin + 6.471143756558238s"
          fill="freeze"
        />
      
        <animate
          attributeName="fill-opacity"
          from="0"
          to="1"
          dur="0.3s"
          begin="cycle.begin + 0.5040923399790136s"
          fill="freeze"
        />
        <animate
          attributeName="fill-opacity"
          from="1"
          to="0"
          dur="0.3s"
          begin="cycle.begin + 6.495907660020987s"
          fill="freeze"
        />
      </path>
    
      <path
        d="M 370 442 Q 352 455 332 460 Q 323 461 317 454 Q 314 448 322 438 Q 352 329 324 225 Q 312 213 321 177 Q 330 144 341 132 Q 351 119 361 132 Q 385 159 386 259 Q 386 412 405 413 C 409 417 395 426 370 442 Z"
        fill="url(#grad-fill)"
        stroke="url(#grad-stroke)"
        stroke-width="2"
        stroke-linecap="round"
        stroke-linejoin="round"
        filter="url(#shadow)"
        transform="translate(10, 30) scale(0.1171875, -0.1171875) translate(0, -1024)"
        class="sig-path"
        stroke-dasharray="89"
        stroke-dashoffset="-89"
        fill-opacity="0"
      >
        <animate
          attributeName="stroke-dashoffset"
          from="-89"
          to="0"
          dur="0.09338929695697797s"
          begin="cycle.begin + 0.5288562434417629s"
          fill="freeze"
        />
        <animate
          attributeName="stroke-dashoffset"
          from="0"
          to="-89"
          dur="0.09338929695697797s"
          begin="cycle.begin + 6.37775445960126s"
          fill="freeze"
        />
      
        <animate
          attributeName="fill-opacity"
          from="0"
          to="1"
          dur="0.3s"
          begin="cycle.begin + 0.5848898216159496s"
          fill="freeze"
        />
        <animate
          attributeName="fill-opacity"
          from="1"
          to="0"
          dur="0.3s"
          begin="cycle.begin + 6.415110178384051s"
          fill="freeze"
        />
      </path>
    
      <path
        d="M 625 208 Q 618 186 632 165 Q 645 137 654 138 Q 667 139 683 171 Q 696 196 695 216 Q 676 378 704 425 Q 714 441 707 451 Q 679 476 629 497 Q 613 503 589 494 Q 478 446 370 442 C 340 440 376 406 405 413 Q 457 425 500 432 Q 593 454 614 441 Q 621 425 627 377 Q 633 236 625 208 Z"
        fill="url(#grad-fill)"
        stroke="url(#grad-stroke)"
        stroke-width="2"
        stroke-linecap="round"
        stroke-linejoin="round"
        filter="url(#shadow)"
        transform="translate(10, 30) scale(0.1171875, -0.1171875) translate(0, -1024)"
        class="sig-path"
        stroke-dasharray="152"
        stroke-dashoffset="-152"
        fill-opacity="0"
      >
        <animate
          attributeName="stroke-dashoffset"
          from="-152"
          to="0"
          dur="0.15949632738719832s"
          begin="cycle.begin + 0.6222455403987408s"
          fill="freeze"
        />
        <animate
          attributeName="stroke-dashoffset"
          from="0"
          to="-152"
          dur="0.15949632738719832s"
          begin="cycle.begin + 6.218258132214061s"
          fill="freeze"
        />
      
        <animate
          attributeName="fill-opacity"
          from="0"
          to="1"
          dur="0.3s"
          begin="cycle.begin + 0.7179433368310598s"
          fill="freeze"
        />
        <animate
          attributeName="fill-opacity"
          from="1"
          to="0"
          dur="0.3s"
          begin="cycle.begin + 6.28205666316894s"
          fill="freeze"
        />
      </path>
    
      <path
        d="M 469 319 Q 470 99 373 25 Q 342 -2 270 -35 Q 257 -39 254 -43 Q 250 -47 264 -51 Q 336 -57 438 18 Q 445 27 454 36 Q 506 102 524 289 Q 525 317 537 347 Q 543 357 534 366 Q 518 382 483 396 Q 464 406 447 401 Q 428 394 443 377 Q 468 349 469 319 Z"
        fill="url(#grad-fill)"
        stroke="url(#grad-stroke)"
        stroke-width="2"
        stroke-linecap="round"
        stroke-linejoin="round"
        filter="url(#shadow)"
        transform="translate(10, 30) scale(0.1171875, -0.1171875) translate(0, -1024)"
        class="sig-path"
        stroke-dasharray="144"
        stroke-dashoffset="-144"
        fill-opacity="0"
      >
        <animate
          attributeName="stroke-dashoffset"
          from="-144"
          to="0"
          dur="0.15110178384050368s"
          begin="cycle.begin + 0.7817418677859391s"
          fill="freeze"
        />
        <animate
          attributeName="stroke-dashoffset"
          from="0"
          to="-144"
          dur="0.15110178384050368s"
          begin="cycle.begin + 6.067156348373556s"
          fill="freeze"
        />
      
        <animate
          attributeName="fill-opacity"
          from="0"
          to="1"
          dur="0.3s"
          begin="cycle.begin + 0.8724029380902414s"
          fill="freeze"
        />
        <animate
          attributeName="fill-opacity"
          from="1"
          to="0"
          dur="0.3s"
          begin="cycle.begin + 6.127597061909758s"
          fill="freeze"
        />
      </path>
    
      <path
        d="M 559 116 Q 610 62 670 -14 Q 685 -36 700 -41 Q 709 -42 717 -33 Q 730 -21 721 25 Q 711 82 563 147 Q 554 153 551 141 Q 550 128 559 116 Z"
        fill="url(#grad-fill)"
        stroke="url(#grad-stroke)"
        stroke-width="2"
        stroke-linecap="round"
        stroke-linejoin="round"
        filter="url(#shadow)"
        transform="translate(10, 30) scale(0.1171875, -0.1171875) translate(0, -1024)"
        class="sig-path"
        stroke-dasharray="64"
        stroke-dashoffset="-64"
        fill-opacity="0"
      >
        <animate
          attributeName="stroke-dashoffset"
          from="-64"
          to="0"
          dur="0.06715634837355719s"
          begin="cycle.begin + 0.9328436516264428s"
          fill="freeze"
        />
        <animate
          attributeName="stroke-dashoffset"
          from="0"
          to="-64"
          dur="0.06715634837355719s"
          begin="cycle.begin + 6s"
          fill="freeze"
        />
      
        <animate
          attributeName="fill-opacity"
          from="0"
          to="1"
          dur="0.3s"
          begin="cycle.begin + 0.973137460650577s"
          fill="freeze"
        />
        <animate
          attributeName="fill-opacity"
          from="1"
          to="0"
          dur="0.3s"
          begin="cycle.begin + 6.026862539349423s"
          fill="freeze"
        />
      </path>
    
      <path
        d="M 328 733 Q 316 740 278 744 Q 265 747 261 741 Q 254 734 265 716 Q 304 643 330 520 Q 336 483 358 460 Q 379 436 383 454 Q 384 461 386 470 L 385 502 Q 384 514 365 594 L 359 618 Q 346 670 342 695 C 337 725 336 730 328 733 Z"
        fill="url(#grad-fill)"
        stroke="url(#grad-stroke)"
        stroke-width="2"
        stroke-linecap="round"
        stroke-linejoin="round"
        filter="url(#shadow)"
        transform="translate(170.79999999999998, 30) scale(0.1171875, -0.1171875) translate(0, -1024)"
        class="sig-path"
        stroke-dasharray="82"
        stroke-dashoffset="-82"
        fill-opacity="0"
      >
        <animate
          attributeName="stroke-dashoffset"
          from="-82"
          to="0"
          dur="0.08807733619763695s"
          begin="cycle.begin + 1s"
          fill="freeze"
        />
        <animate
          attributeName="stroke-dashoffset"
          from="0"
          to="-82"
          dur="0.08807733619763695s"
          begin="cycle.begin + 5.911922663802363s"
          fill="freeze"
        />
      
        <animate
          attributeName="fill-opacity"
          from="0"
          to="1"
          dur="0.3s"
          begin="cycle.begin + 1.0528464017185821s"
          fill="freeze"
        />
        <animate
          attributeName="fill-opacity"
          from="1"
          to="0"
          dur="0.3s"
          begin="cycle.begin + 5.947153598281417s"
          fill="freeze"
        />
      </path>
    
      <path
        d="M 621 495 Q 621 488 624 481 Q 630 463 644 465 Q 660 466 668 483 Q 684 504 709 602 Q 728 660 769 693 Q 791 712 773 729 Q 752 748 696 778 Q 681 788 610 774 Q 484 759 429 748 Q 371 738 328 733 C 298 729 312 692 342 695 Q 349 694 358 696 Q 437 718 615 734 Q 646 735 657 729 Q 669 722 663 685 Q 638 547 626 520 Q 625 520 625 519 L 621 495 Z"
        fill="url(#grad-fill)"
        stroke="url(#grad-stroke)"
        stroke-width="2"
        stroke-linecap="round"
        stroke-linejoin="round"
        filter="url(#shadow)"
        transform="translate(170.79999999999998, 30) scale(0.1171875, -0.1171875) translate(0, -1024)"
        class="sig-path"
        stroke-dasharray="170"
        stroke-dashoffset="-170"
        fill-opacity="0"
      >
        <animate
          attributeName="stroke-dashoffset"
          from="-170"
          to="0"
          dur="0.18259935553168635s"
          begin="cycle.begin + 1.088077336197637s"
          fill="freeze"
        />
        <animate
          attributeName="stroke-dashoffset"
          from="0"
          to="-170"
          dur="0.18259935553168635s"
          begin="cycle.begin + 5.7293233082706765s"
          fill="freeze"
        />
      
        <animate
          attributeName="fill-opacity"
          from="0"
          to="1"
          dur="0.3s"
          begin="cycle.begin + 1.1976369495166488s"
          fill="freeze"
        />
        <animate
          attributeName="fill-opacity"
          from="1"
          to="0"
          dur="0.3s"
          begin="cycle.begin + 5.802363050483351s"
          fill="freeze"
        />
      </path>
    
      <path
        d="M 365 594 Q 377 591 394 593 Q 506 609 589 619 Q 614 622 605 636 Q 595 652 568 657 Q 544 661 359 618 C 330 611 335 599 365 594 Z"
        fill="url(#grad-fill)"
        stroke="url(#grad-stroke)"
        stroke-width="2"
        stroke-linecap="round"
        stroke-linejoin="round"
        filter="url(#shadow)"
        transform="translate(170.79999999999998, 30) scale(0.1171875, -0.1171875) translate(0, -1024)"
        class="sig-path"
        stroke-dasharray="67"
        stroke-dashoffset="-67"
        fill-opacity="0"
      >
        <animate
          attributeName="stroke-dashoffset"
          from="-67"
          to="0"
          dur="0.0719656283566058s"
          begin="cycle.begin + 1.2706766917293233s"
          fill="freeze"
        />
        <animate
          attributeName="stroke-dashoffset"
          from="0"
          to="-67"
          dur="0.0719656283566058s"
          begin="cycle.begin + 5.657357679914071s"
          fill="freeze"
        />
      
        <animate
          attributeName="fill-opacity"
          from="0"
          to="1"
          dur="0.3s"
          begin="cycle.begin + 1.3138560687432868s"
          fill="freeze"
        />
        <animate
          attributeName="fill-opacity"
          from="1"
          to="0"
          dur="0.3s"
          begin="cycle.begin + 5.686143931256713s"
          fill="freeze"
        />
      </path>
    
      <path
        d="M 386 470 Q 390 470 396 471 Q 466 486 621 495 C 651 497 648 500 625 519 Q 618 525 608 532 Q 593 541 564 534 Q 465 512 385 502 C 355 498 356 467 386 470 Z"
        fill="url(#grad-fill)"
        stroke="url(#grad-stroke)"
        stroke-width="2"
        stroke-linecap="round"
        stroke-linejoin="round"
        filter="url(#shadow)"
        transform="translate(170.79999999999998, 30) scale(0.1171875, -0.1171875) translate(0, -1024)"
        class="sig-path"
        stroke-dasharray="70"
        stroke-dashoffset="-70"
        fill-opacity="0"
      >
        <animate
          attributeName="stroke-dashoffset"
          from="-70"
          to="0"
          dur="0.07518796992481203s"
          begin="cycle.begin + 1.342642320085929s"
          fill="freeze"
        />
        <animate
          attributeName="stroke-dashoffset"
          from="0"
          to="-70"
          dur="0.07518796992481203s"
          begin="cycle.begin + 5.582169709989259s"
          fill="freeze"
        />
      
        <animate
          attributeName="fill-opacity"
          from="0"
          to="1"
          dur="0.3s"
          begin="cycle.begin + 1.387755102040816s"
          fill="freeze"
        />
        <animate
          attributeName="fill-opacity"
          from="1"
          to="0"
          dur="0.3s"
          begin="cycle.begin + 5.612244897959184s"
          fill="freeze"
        />
      </path>
    
      <path
        d="M 250 371 Q 231 381 212 385 Q 205 388 199 382 Q 190 375 201 363 Q 249 290 263 101 Q 264 32 308 5 L 311 3 Q 330 -1 331 32 Q 331 33 330 34 L 326 76 Q 320 101 307 177 L 302 211 Q 293 274 291 324 C 290 352 277 358 250 371 Z"
        fill="url(#grad-fill)"
        stroke="url(#grad-stroke)"
        stroke-width="2"
        stroke-linecap="round"
        stroke-linejoin="round"
        filter="url(#shadow)"
        transform="translate(170.79999999999998, 30) scale(0.1171875, -0.1171875) translate(0, -1024)"
        class="sig-path"
        stroke-dasharray="102"
        stroke-dashoffset="-102"
        fill-opacity="0"
      >
        <animate
          attributeName="stroke-dashoffset"
          from="-102"
          to="0"
          dur="0.10955961331901182s"
          begin="cycle.begin + 1.4178302900107411s"
          fill="freeze"
        />
        <animate
          attributeName="stroke-dashoffset"
          from="0"
          to="-102"
          dur="0.10955961331901182s"
          begin="cycle.begin + 5.472610096670247s"
          fill="freeze"
        />
      
        <animate
          attributeName="fill-opacity"
          from="0"
          to="1"
          dur="0.3s"
          begin="cycle.begin + 1.4835660580021481s"
          fill="freeze"
        />
        <animate
          attributeName="fill-opacity"
          from="1"
          to="0"
          dur="0.3s"
          begin="cycle.begin + 5.516433941997852s"
          fill="freeze"
        />
      </path>
    
      <path
        d="M 661 66 Q 671 38 692 -13 Q 699 -32 711 -32 Q 727 -31 740 -3 Q 776 58 786 145 Q 796 199 806 261 Q 813 315 839 348 Q 858 370 845 385 Q 821 410 769 435 Q 748 447 711 434 Q 615 404 505 387 Q 403 375 250 371 C 220 370 261 322 291 324 Q 304 323 314 325 Q 458 350 682 378 Q 722 385 738 365 Q 762 310 712 108 Q 708 89 700 87 C 686 60 650 94 661 66 Z"
        fill="url(#grad-fill)"
        stroke="url(#grad-stroke)"
        stroke-width="2"
        stroke-linecap="round"
        stroke-linejoin="round"
        filter="url(#shadow)"
        transform="translate(170.79999999999998, 30) scale(0.1171875, -0.1171875) translate(0, -1024)"
        class="sig-path"
        stroke-dasharray="243"
        stroke-dashoffset="-243"
        fill-opacity="0"
      >
        <animate
          attributeName="stroke-dashoffset"
          from="-243"
          to="0"
          dur="0.26100966702470463s"
          begin="cycle.begin + 1.5273899033297529s"
          fill="freeze"
        />
        <animate
          attributeName="stroke-dashoffset"
          from="0"
          to="-243"
          dur="0.26100966702470463s"
          begin="cycle.begin + 5.211600429645543s"
          fill="freeze"
        />
      
        <animate
          attributeName="fill-opacity"
          from="0"
          to="1"
          dur="0.3s"
          begin="cycle.begin + 1.6839957035445756s"
          fill="freeze"
        />
        <animate
          attributeName="fill-opacity"
          from="1"
          to="0"
          dur="0.3s"
          begin="cycle.begin + 5.316004296455425s"
          fill="freeze"
        />
      </path>
    
      <path
        d="M 307 177 Q 320 176 343 178 Q 518 206 647 224 Q 675 228 665 243 Q 653 261 624 267 Q 596 271 547 260 Q 417 233 302 211 C 273 205 277 178 307 177 Z"
        fill="url(#grad-fill)"
        stroke="url(#grad-stroke)"
        stroke-width="2"
        stroke-linecap="round"
        stroke-linejoin="round"
        filter="url(#shadow)"
        transform="translate(170.79999999999998, 30) scale(0.1171875, -0.1171875) translate(0, -1024)"
        class="sig-path"
        stroke-dasharray="96"
        stroke-dashoffset="-96"
        fill-opacity="0"
      >
        <animate
          attributeName="stroke-dashoffset"
          from="-96"
          to="0"
          dur="0.10311493018259936s"
          begin="cycle.begin + 1.7883995703544575s"
          fill="freeze"
        />
        <animate
          attributeName="stroke-dashoffset"
          from="0"
          to="-96"
          dur="0.10311493018259936s"
          begin="cycle.begin + 5.108485499462943s"
          fill="freeze"
        />
      
        <animate
          attributeName="fill-opacity"
          from="0"
          to="1"
          dur="0.3s"
          begin="cycle.begin + 1.8502685284640172s"
          fill="freeze"
        />
        <animate
          attributeName="fill-opacity"
          from="1"
          to="0"
          dur="0.3s"
          begin="cycle.begin + 5.149731471535983s"
          fill="freeze"
        />
      </path>
    
      <path
        d="M 330 34 Q 336 34 344 35 Q 446 56 661 66 C 691 67 727 73 700 87 Q 697 87 656 114 Q 637 126 600 118 Q 449 88 326 76 C 296 73 300 32 330 34 Z"
        fill="url(#grad-fill)"
        stroke="url(#grad-stroke)"
        stroke-width="2"
        stroke-linecap="round"
        stroke-linejoin="round"
        filter="url(#shadow)"
        transform="translate(170.79999999999998, 30) scale(0.1171875, -0.1171875) translate(0, -1024)"
        class="sig-path"
        stroke-dasharray="101"
        stroke-dashoffset="-101"
        fill-opacity="0"
      >
        <animate
          attributeName="stroke-dashoffset"
          from="-101"
          to="0"
          dur="0.10848549946294307s"
          begin="cycle.begin + 1.8915145005370568s"
          fill="freeze"
        />
        <animate
          attributeName="stroke-dashoffset"
          from="0"
          to="-101"
          dur="0.10848549946294307s"
          begin="cycle.begin + 5s"
          fill="freeze"
        />
      
        <animate
          attributeName="fill-opacity"
          from="0"
          to="1"
          dur="0.3s"
          begin="cycle.begin + 1.9566058002148226s"
          fill="freeze"
        />
        <animate
          attributeName="fill-opacity"
          from="1"
          to="0"
          dur="0.3s"
          begin="cycle.begin + 5.043394199785177s"
          fill="freeze"
        />
      </path>
    
      <path
        d="M 538 710 Q 599 720 664 726 Q 730 736 740 745 Q 750 752 746 760 Q 740 773 712 782 Q 684 789 654 781 Q 599 766 542 754 L 484 745 Q 397 733 300 731 Q 264 728 288 709 Q 327 682 381 691 Q 433 698 486 703 L 538 710 Z"
        fill="url(#grad-fill)"
        stroke="url(#grad-stroke)"
        stroke-width="2"
        stroke-linecap="round"
        stroke-linejoin="round"
        filter="url(#shadow)"
        transform="translate(331.59999999999997, 30) scale(0.1171875, -0.1171875) translate(0, -1024)"
        class="sig-path"
        stroke-dasharray="115"
        stroke-dashoffset="-115"
        fill-opacity="0"
      >
        <animate
          attributeName="stroke-dashoffset"
          from="-115"
          to="0"
          dur="0.0925181013676589s"
          begin="cycle.begin + 2s"
          fill="freeze"
        />
        <animate
          attributeName="stroke-dashoffset"
          from="0"
          to="-115"
          dur="0.0925181013676589s"
          begin="cycle.begin + 4.907481898632341s"
          fill="freeze"
        />
      
        <animate
          attributeName="fill-opacity"
          from="0"
          to="1"
          dur="0.3s"
          begin="cycle.begin + 2.055510860820595s"
          fill="freeze"
        />
        <animate
          attributeName="fill-opacity"
          from="1"
          to="0"
          dur="0.3s"
          begin="cycle.begin + 4.944489139179404s"
          fill="freeze"
        />
      </path>
    
      <path
        d="M 529 640 Q 533 676 538 710 L 542 754 Q 545 776 549 794 Q 553 804 555 811 Q 558 821 540 834 Q 509 852 486 855 Q 471 859 464 851 Q 457 844 465 830 Q 480 811 484 745 L 486 703 Q 487 669 488 632 C 489 602 526 610 529 640 Z"
        fill="url(#grad-fill)"
        stroke="url(#grad-stroke)"
        stroke-width="2"
        stroke-linecap="round"
        stroke-linejoin="round"
        filter="url(#shadow)"
        transform="translate(331.59999999999997, 30) scale(0.1171875, -0.1171875) translate(0, -1024)"
        class="sig-path"
        stroke-dasharray="68"
        stroke-dashoffset="-68"
        fill-opacity="0"
      >
        <animate
          attributeName="stroke-dashoffset"
          from="-68"
          to="0"
          dur="0.054706355591311345s"
          begin="cycle.begin + 2.092518101367659s"
          fill="freeze"
        />
        <animate
          attributeName="stroke-dashoffset"
          from="0"
          to="-68"
          dur="0.054706355591311345s"
          begin="cycle.begin + 4.85277554304103s"
          fill="freeze"
        />
      
        <animate
          attributeName="fill-opacity"
          from="0"
          to="1"
          dur="0.3s"
          begin="cycle.begin + 2.1253419147224455s"
          fill="freeze"
        />
        <animate
          attributeName="fill-opacity"
          from="1"
          to="0"
          dur="0.3s"
          begin="cycle.begin + 4.874658085277555s"
          fill="freeze"
        />
      </path>
    
      <path
        d="M 488 632 Q 395 625 361 622 Q 336 619 354 603 Q 384 579 409 583 Q 496 598 650 611 Q 660 610 668 620 Q 669 630 649 641 Q 625 665 533 641 Q 530 641 529 640 L 488 632 Z"
        fill="url(#grad-fill)"
        stroke="url(#grad-stroke)"
        stroke-width="2"
        stroke-linecap="round"
        stroke-linejoin="round"
        filter="url(#shadow)"
        transform="translate(331.59999999999997, 30) scale(0.1171875, -0.1171875) translate(0, -1024)"
        class="sig-path"
        stroke-dasharray="80"
        stroke-dashoffset="-80"
        fill-opacity="0"
      >
        <animate
          attributeName="stroke-dashoffset"
          from="-80"
          to="0"
          dur="0.06436041834271923s"
          begin="cycle.begin + 2.1472244569589702s"
          fill="freeze"
        />
        <animate
          attributeName="stroke-dashoffset"
          from="0"
          to="-80"
          dur="0.06436041834271923s"
          begin="cycle.begin + 4.788415124698311s"
          fill="freeze"
        />
      
        <animate
          attributeName="fill-opacity"
          from="0"
          to="1"
          dur="0.3s"
          begin="cycle.begin + 2.185840707964602s"
          fill="freeze"
        />
        <animate
          attributeName="fill-opacity"
          from="1"
          to="0"
          dur="0.3s"
          begin="cycle.begin + 4.814159292035399s"
          fill="freeze"
        />
      </path>
    
      <path
        d="M 380 537 Q 370 541 346 543 Q 336 544 332 540 Q 328 534 336 521 Q 357 488 374 432 Q 378 416 389 405 Q 405 387 410 401 Q 411 407 411 414 L 408 445 Q 399 493 397 510 C 394 532 394 532 380 537 Z"
        fill="url(#grad-fill)"
        stroke="url(#grad-stroke)"
        stroke-width="2"
        stroke-linecap="round"
        stroke-linejoin="round"
        filter="url(#shadow)"
        transform="translate(331.59999999999997, 30) scale(0.1171875, -0.1171875) translate(0, -1024)"
        class="sig-path"
        stroke-dasharray="44"
        stroke-dashoffset="-44"
        fill-opacity="0"
      >
        <animate
          attributeName="stroke-dashoffset"
          from="-44"
          to="0"
          dur="0.035398230088495575s"
          begin="cycle.begin + 2.2115848753016896s"
          fill="freeze"
        />
        <animate
          attributeName="stroke-dashoffset"
          from="0"
          to="-44"
          dur="0.035398230088495575s"
          begin="cycle.begin + 4.753016894609814s"
          fill="freeze"
        />
      
        <animate
          attributeName="fill-opacity"
          from="0"
          to="1"
          dur="0.3s"
          begin="cycle.begin + 2.232823813354787s"
          fill="freeze"
        />
        <animate
          attributeName="fill-opacity"
          from="1"
          to="0"
          dur="0.3s"
          begin="cycle.begin + 4.767176186645212s"
          fill="freeze"
        />
      </path>
    
      <path
        d="M 644 468 Q 662 498 685 511 Q 701 527 689 543 Q 625 600 567 572 Q 477 548 380 537 C 350 533 367 506 397 510 Q 487 522 575 539 Q 594 543 602 535 Q 606 531 606 520 Q 602 495 595 474 C 586 445 628 443 644 468 Z"
        fill="url(#grad-fill)"
        stroke="url(#grad-stroke)"
        stroke-width="2"
        stroke-linecap="round"
        stroke-linejoin="round"
        filter="url(#shadow)"
        transform="translate(331.59999999999997, 30) scale(0.1171875, -0.1171875) translate(0, -1024)"
        class="sig-path"
        stroke-dasharray="97"
        stroke-dashoffset="-97"
        fill-opacity="0"
      >
        <animate
          attributeName="stroke-dashoffset"
          from="-97"
          to="0"
          dur="0.07803700724054706s"
          begin="cycle.begin + 2.246983105390185s"
          fill="freeze"
        />
        <animate
          attributeName="stroke-dashoffset"
          from="0"
          to="-97"
          dur="0.07803700724054706s"
          begin="cycle.begin + 4.674979887369267s"
          fill="freeze"
        />
      
        <animate
          attributeName="fill-opacity"
          from="0"
          to="1"
          dur="0.3s"
          begin="cycle.begin + 2.2938053097345135s"
          fill="freeze"
        />
        <animate
          attributeName="fill-opacity"
          from="1"
          to="0"
          dur="0.3s"
          begin="cycle.begin + 4.7061946902654865s"
          fill="freeze"
        />
      </path>
    
      <path
        d="M 643 435 Q 647 436 655 436 Q 665 437 667 445 Q 667 452 644 468 C 627 480 624 480 595 474 Q 490 453 408 445 C 378 442 381 416 411 414 Q 420 413 432 414 Q 490 426 609 433 L 610 432 C 614 432 614 432 643 435 Z"
        fill="url(#grad-fill)"
        stroke="url(#grad-stroke)"
        stroke-width="2"
        stroke-linecap="round"
        stroke-linejoin="round"
        filter="url(#shadow)"
        transform="translate(331.59999999999997, 30) scale(0.1171875, -0.1171875) translate(0, -1024)"
        class="sig-path"
        stroke-dasharray="70"
        stroke-dashoffset="-70"
        fill-opacity="0"
      >
        <animate
          attributeName="stroke-dashoffset"
          from="-70"
          to="0"
          dur="0.05631536604987932s"
          begin="cycle.begin + 2.325020112630732s"
          fill="freeze"
        />
        <animate
          attributeName="stroke-dashoffset"
          from="0"
          to="-70"
          dur="0.05631536604987932s"
          begin="cycle.begin + 4.618664521319388s"
          fill="freeze"
        />
      
        <animate
          attributeName="fill-opacity"
          from="0"
          to="1"
          dur="0.3s"
          begin="cycle.begin + 2.35880933226066s"
          fill="freeze"
        />
        <animate
          attributeName="fill-opacity"
          from="1"
          to="0"
          dur="0.3s"
          begin="cycle.begin + 4.64119066773934s"
          fill="freeze"
        />
      </path>
    
      <path
        d="M 407 302 Q 410 314 410 335 Q 407 365 335 402 Q 322 408 316 407 Q 312 404 310 393 L 372 298 C 388 273 401 273 407 302 Z"
        fill="url(#grad-fill)"
        stroke="url(#grad-stroke)"
        stroke-width="2"
        stroke-linecap="round"
        stroke-linejoin="round"
        filter="url(#shadow)"
        transform="translate(331.59999999999997, 30) scale(0.1171875, -0.1171875) translate(0, -1024)"
        class="sig-path"
        stroke-dasharray="41"
        stroke-dashoffset="-41"
        fill-opacity="0"
      >
        <animate
          attributeName="stroke-dashoffset"
          from="-41"
          to="0"
          dur="0.03298471440064361s"
          begin="cycle.begin + 2.3813354786806116s"
          fill="freeze"
        />
        <animate
          attributeName="stroke-dashoffset"
          from="0"
          to="-41"
          dur="0.03298471440064361s"
          begin="cycle.begin + 4.585679806918745s"
          fill="freeze"
        />
      
        <animate
          attributeName="fill-opacity"
          from="0"
          to="1"
          dur="0.3s"
          begin="cycle.begin + 2.4011263073209976s"
          fill="freeze"
        />
        <animate
          attributeName="fill-opacity"
          from="1"
          to="0"
          dur="0.3s"
          begin="cycle.begin + 4.598873692679002s"
          fill="freeze"
        />
      </path>
    
      <path
        d="M 602 322 Q 639 364 661 382 Q 674 389 669 400 Q 663 416 643 435 C 622 456 608 462 610 432 Q 614 411 578 337 Q 571 328 568 319 C 557 291 582 300 602 322 Z"
        fill="url(#grad-fill)"
        stroke="url(#grad-stroke)"
        stroke-width="2"
        stroke-linecap="round"
        stroke-linejoin="round"
        filter="url(#shadow)"
        transform="translate(331.59999999999997, 30) scale(0.1171875, -0.1171875) translate(0, -1024)"
        class="sig-path"
        stroke-dasharray="46"
        stroke-dashoffset="-46"
        fill-opacity="0"
      >
        <animate
          attributeName="stroke-dashoffset"
          from="-46"
          to="0"
          dur="0.03700724054706356s"
          begin="cycle.begin + 2.414320193081255s"
          fill="freeze"
        />
        <animate
          attributeName="stroke-dashoffset"
          from="0"
          to="-46"
          dur="0.03700724054706356s"
          begin="cycle.begin + 4.548672566371682s"
          fill="freeze"
        />
      
        <animate
          attributeName="fill-opacity"
          from="0"
          to="1"
          dur="0.3s"
          begin="cycle.begin + 2.4365245374094933s"
          fill="freeze"
        />
        <animate
          attributeName="fill-opacity"
          from="1"
          to="0"
          dur="0.3s"
          begin="cycle.begin + 4.563475462590508s"
          fill="freeze"
        />
      </path>
    
      <path
        d="M 338 261 Q 539 303 907 285 Q 908 286 911 285 Q 933 284 938 293 Q 945 306 927 321 Q 873 364 832 357 Q 741 341 602 322 L 568 319 Q 411 304 407 302 L 372 298 Q 245 288 110 275 Q 88 274 104 255 Q 119 239 137 233 Q 159 226 177 231 Q 241 247 310 257 L 338 261 Z"
        fill="url(#grad-fill)"
        stroke="url(#grad-stroke)"
        stroke-width="2"
        stroke-linecap="round"
        stroke-linejoin="round"
        filter="url(#shadow)"
        transform="translate(331.59999999999997, 30) scale(0.1171875, -0.1171875) translate(0, -1024)"
        class="sig-path"
        stroke-dasharray="205"
        stroke-dashoffset="-205"
        fill-opacity="0"
      >
        <animate
          attributeName="stroke-dashoffset"
          from="-205"
          to="0"
          dur="0.16492357200321803s"
          begin="cycle.begin + 2.4513274336283186s"
          fill="freeze"
        />
        <animate
          attributeName="stroke-dashoffset"
          from="0"
          to="-205"
          dur="0.16492357200321803s"
          begin="cycle.begin + 4.383748994368464s"
          fill="freeze"
        />
      
        <animate
          attributeName="fill-opacity"
          from="0"
          to="1"
          dur="0.3s"
          begin="cycle.begin + 2.5502815768302494s"
          fill="freeze"
        />
        <animate
          attributeName="fill-opacity"
          from="1"
          to="0"
          dur="0.3s"
          begin="cycle.begin + 4.449718423169751s"
          fill="freeze"
        />
      </path>
    
      <path
        d="M 355 160 Q 425 176 437 166 Q 443 156 439 133 Q 432 66 416 38 Q 400 10 374 15 Q 350 21 329 29 Q 307 36 323 15 Q 362 -21 380 -50 Q 393 -66 407 -54 Q 449 -29 477 65 Q 492 143 510 162 Q 522 174 516 183 Q 509 193 463 216 Q 445 223 428 213 Q 412 206 370 194 L 305 181 Q 238 169 183 167 Q 167 166 164 158 Q 163 151 184 140 Q 206 125 224 131 Q 260 141 294 148 L 355 160 Z"
        fill="url(#grad-fill)"
        stroke="url(#grad-stroke)"
        stroke-width="2"
        stroke-linecap="round"
        stroke-linejoin="round"
        filter="url(#shadow)"
        transform="translate(331.59999999999997, 30) scale(0.1171875, -0.1171875) translate(0, -1024)"
        class="sig-path"
        stroke-dasharray="154"
        stroke-dashoffset="-154"
        fill-opacity="0"
      >
        <animate
          attributeName="stroke-dashoffset"
          from="-154"
          to="0"
          dur="0.12389380530973451s"
          begin="cycle.begin + 2.6162510056315367s"
          fill="freeze"
        />
        <animate
          attributeName="stroke-dashoffset"
          from="0"
          to="-154"
          dur="0.12389380530973451s"
          begin="cycle.begin + 4.259855189058729s"
          fill="freeze"
        />
      
        <animate
          attributeName="fill-opacity"
          from="0"
          to="1"
          dur="0.3s"
          begin="cycle.begin + 2.6905872888173774s"
          fill="freeze"
        />
        <animate
          attributeName="fill-opacity"
          from="1"
          to="0"
          dur="0.3s"
          begin="cycle.begin + 4.309412711182622s"
          fill="freeze"
        />
      </path>
    
      <path
        d="M 294 148 Q 261 64 151 -32 Q 144 -39 151 -41 Q 158 -44 167 -39 Q 296 16 355 160 L 370 194 Q 385 228 383 232 Q 371 250 338 261 C 310 272 310 272 310 257 Q 309 254 310 247 Q 314 216 305 181 L 294 148 Z"
        fill="url(#grad-fill)"
        stroke="url(#grad-stroke)"
        stroke-width="2"
        stroke-linecap="round"
        stroke-linejoin="round"
        filter="url(#shadow)"
        transform="translate(331.59999999999997, 30) scale(0.1171875, -0.1171875) translate(0, -1024)"
        class="sig-path"
        stroke-dasharray="97"
        stroke-dashoffset="-97"
        fill-opacity="0"
      >
        <animate
          attributeName="stroke-dashoffset"
          from="-97"
          to="0"
          dur="0.07803700724054706s"
          begin="cycle.begin + 2.740144810941271s"
          fill="freeze"
        />
        <animate
          attributeName="stroke-dashoffset"
          from="0"
          to="-97"
          dur="0.07803700724054706s"
          begin="cycle.begin + 4.181818181818182s"
          fill="freeze"
        />
      
        <animate
          attributeName="fill-opacity"
          from="0"
          to="1"
          dur="0.3s"
          begin="cycle.begin + 2.786967015285599s"
          fill="freeze"
        />
        <animate
          attributeName="fill-opacity"
          from="1"
          to="0"
          dur="0.3s"
          begin="cycle.begin + 4.213032984714401s"
          fill="freeze"
        />
      </path>
    
      <path
        d="M 582 187 Q 570 191 545 197 Q 532 201 529 195 Q 522 189 531 173 Q 558 115 573 19 Q 576 -9 592 -28 Q 610 -50 615 -35 Q 619 -20 619 4 L 614 41 Q 601 126 599 154 C 597 182 597 182 582 187 Z"
        fill="url(#grad-fill)"
        stroke="url(#grad-stroke)"
        stroke-width="2"
        stroke-linecap="round"
        stroke-linejoin="round"
        filter="url(#shadow)"
        transform="translate(331.59999999999997, 30) scale(0.1171875, -0.1171875) translate(0, -1024)"
        class="sig-path"
        stroke-dasharray="65"
        stroke-dashoffset="-65"
        fill-opacity="0"
      >
        <animate
          attributeName="stroke-dashoffset"
          from="-65"
          to="0"
          dur="0.05229283990345937s"
          begin="cycle.begin + 2.8181818181818183s"
          fill="freeze"
        />
        <animate
          attributeName="stroke-dashoffset"
          from="0"
          to="-65"
          dur="0.05229283990345937s"
          begin="cycle.begin + 4.129525341914722s"
          fill="freeze"
        />
      
        <animate
          attributeName="fill-opacity"
          from="0"
          to="1"
          dur="0.3s"
          begin="cycle.begin + 2.849557522123894s"
          fill="freeze"
        />
        <animate
          attributeName="fill-opacity"
          from="1"
          to="0"
          dur="0.3s"
          begin="cycle.begin + 4.150442477876106s"
          fill="freeze"
        />
      </path>
    
      <path
        d="M 792 63 Q 814 135 846 155 Q 862 174 848 191 Q 832 204 780 229 Q 762 236 740 228 Q 688 207 582 187 C 553 181 569 149 599 154 Q 609 155 622 159 Q 745 180 752 174 Q 765 161 741 59 C 734 30 783 34 792 63 Z"
        fill="url(#grad-fill)"
        stroke="url(#grad-stroke)"
        stroke-width="2"
        stroke-linecap="round"
        stroke-linejoin="round"
        filter="url(#shadow)"
        transform="translate(331.59999999999997, 30) scale(0.1171875, -0.1171875) translate(0, -1024)"
        class="sig-path"
        stroke-dasharray="99"
        stroke-dashoffset="-99"
        fill-opacity="0"
      >
        <animate
          attributeName="stroke-dashoffset"
          from="-99"
          to="0"
          dur="0.07964601769911504s"
          begin="cycle.begin + 2.8704746580852776s"
          fill="freeze"
        />
        <animate
          attributeName="stroke-dashoffset"
          from="0"
          to="-99"
          dur="0.07964601769911504s"
          begin="cycle.begin + 4.049879324215607s"
          fill="freeze"
        />
      
        <animate
          attributeName="fill-opacity"
          from="0"
          to="1"
          dur="0.3s"
          begin="cycle.begin + 2.918262268704747s"
          fill="freeze"
        />
        <animate
          attributeName="fill-opacity"
          from="1"
          to="0"
          dur="0.3s"
          begin="cycle.begin + 4.081737731295253s"
          fill="freeze"
        />
      </path>
    
      <path
        d="M 619 4 Q 623 4 630 4 Q 691 14 821 16 Q 833 17 834 26 Q 835 35 804 58 Q 798 62 792 63 L 741 59 Q 671 46 614 41 C 584 38 589 4 619 4 Z"
        fill="url(#grad-fill)"
        stroke="url(#grad-stroke)"
        stroke-width="2"
        stroke-linecap="round"
        stroke-linejoin="round"
        filter="url(#shadow)"
        transform="translate(331.59999999999997, 30) scale(0.1171875, -0.1171875) translate(0, -1024)"
        class="sig-path"
        stroke-dasharray="62"
        stroke-dashoffset="-62"
        fill-opacity="0"
      >
        <animate
          attributeName="stroke-dashoffset"
          from="-62"
          to="0"
          dur="0.0498793242156074s"
          begin="cycle.begin + 2.9501206757843925s"
          fill="freeze"
        />
        <animate
          attributeName="stroke-dashoffset"
          from="0"
          to="-62"
          dur="0.0498793242156074s"
          begin="cycle.begin + 4s"
          fill="freeze"
        />
      
        <animate
          attributeName="fill-opacity"
          from="0"
          to="1"
          dur="0.3s"
          begin="cycle.begin + 2.9800482703137567s"
          fill="freeze"
        />
        <animate
          attributeName="fill-opacity"
          from="1"
          to="0"
          dur="0.3s"
          begin="cycle.begin + 4.019951729686243s"
          fill="freeze"
        />
      </path>
    
      </g>
    </svg>